<svg xmlns="http://www.w3.org/2000/svg" width="30" height="36" viewBox="0 0 30 36">
  <g fill="none">
    <path fill="#E63264" d="M14.3549379,35.4844552 C14.2308,35.4844552 14.0954897,35.3901103 14.0098345,35.244869 C13.9589379,35.156731 13.9303862,35.0574207 13.9316276,34.9655586 C13.9316276,34.920869 13.9415586,34.8736966 13.9589379,34.8277655 C14.2010069,34.5012828 13.8074897,34.1574207 13.5468,33.9277655 L13.392869,33.7936966 C13.140869,33.5702483 12.8814207,33.3331448 12.6145241,33.0799034 C11.9615586,32.4604552 11.2663862,31.7603172 10.5923172,31.0589379 C8.92886897,29.3296966 7.38955862,27.5843172 6.9948,27.092731 L6.90790345,26.9834897 C4.48473103,23.9632138 1.46817931,20.2005931 0.729558621,16.3200414 C0.0405931034,12.6976966 1.03617931,9.03686897 3.53631724,6.01783448 C6.34431724,2.62390345 10.7425241,0.516041379 15.012869,0.516041379 C15.3530069,0.516041379 15.6931448,0.529696552 16.0320414,0.554524138 C20.2614207,0.879765517 24.4672138,3.36997241 27.0070759,7.05190345 C29.1621103,10.172731 29.808869,13.7243172 28.8306621,17.0499724 C26.7426621,24.1432138 20.448869,30.5152138 15.5354897,34.6105241 C15.2189379,34.8749379 14.9023862,35.1331448 14.5895586,35.3863862 C14.508869,35.4521793 14.4306621,35.4844552 14.3549379,35.4844552"/>
    <path fill="#FFF" d="M15.0136138,0 C6.6069931,0 -1.45452414,7.60096552 0.22257931,16.4172414 C0.994717241,20.4703448 4.08451034,24.2888276 6.59209655,27.4146207 C6.99802759,27.9198621 8.54230345,29.6714483 10.2194069,31.4168276 C10.8996828,32.1244138 11.6023034,32.8307586 12.2589931,33.4526897 C12.5308552,33.7108966 12.795269,33.9542069 13.0460276,34.1764138 C13.0845103,34.209931 13.1229931,34.2434483 13.1614759,34.2769655 C13.1763724,34.2893793 13.1900276,34.3030345 13.2049241,34.3154483 C13.5500276,34.6183448 13.4879586,34.6183448 13.4780276,34.6431724 C13.4370621,34.7474483 13.4172,34.8542069 13.4159586,34.9597241 C13.4122345,35.1521379 13.4680966,35.342069 13.5649241,35.505931 C13.7337517,35.7926897 14.0292,36 14.3556828,36 C14.5369241,36 14.7280966,35.9366897 14.9143034,35.7864828 C15.2296138,35.5332414 15.5474069,35.2725517 15.8664414,35.0068966 C21.3645103,30.4237241 27.3045103,24.0628966 29.3254759,17.1955862 C31.7858897,8.83489655 24.1303034,0.660413793 16.071269,0.0409655172 C15.7187172,0.0136551724 15.3649241,0 15.0136138,0 M15.0136138,1.03158621 C15.3388552,1.03158621 15.6665793,1.044 15.9918207,1.06882759 C20.0709931,1.38289655 24.1290621,3.78868966 26.583269,7.34648276 C28.6464414,10.3369655 29.2683724,13.7321379 28.3348552,16.9051034 C26.2840966,23.8754483 20.0635448,30.1655172 15.2060276,34.2136552 C14.9763724,34.4048276 14.7479586,34.5935172 14.5170621,34.7809655 C14.615131,34.1801379 14.0776138,33.7084138 13.8405103,33.5011034 L13.7300276,33.4030345 C13.4867172,33.1882759 13.2309931,32.9524138 12.9678207,32.7041379 C12.3732,32.1405517 11.699131,31.4664828 10.9629931,30.7017931 C9.3069931,28.9775172 7.78382069,27.252 7.39775172,26.7691034 L7.31582069,26.6685517 C4.92616552,23.6892414 1.95182069,19.9812414 1.23678621,16.2235862 C0.576372414,12.753931 1.53471724,9.2457931 3.93430345,6.34593103 C6.64671724,3.06868966 10.8922345,1.03158621 15.0136138,1.03158621"/>
    <path fill="#FFF" d="M21.6507724,13.9506207 C19.5031862,12.0637241 17.3556,10.178069 15.2080138,8.29117241 C15.0540828,8.15586207 14.7424966,8.12358621 14.5786345,8.26758621 C12.4360138,10.1532414 10.2946345,12.0401379 8.15201379,13.9257931 C7.76718621,14.2646897 8.04649655,14.8332414 8.4213931,14.8630345 L8.40649655,14.868 L10.037669,14.868 C9.92097931,14.9685517 9.85766897,15.0765517 9.84897931,15.408 L9.82415172,16.0125517 C9.90856552,17.8497931 9.99173793,19.6870345 10.0761517,21.5230345 C10.0848414,21.7191724 10.2710483,21.8284138 10.4473241,21.8284138 L13.2664966,21.8284138 C13.4601517,21.8284138 13.5793241,21.6347586 13.5793241,21.4634483 L13.5793241,18.8615172 C13.5793241,18.1005517 13.3087034,16.6518621 13.6761517,15.9430345 C14.1702207,14.9908966 16.0310483,15.0306207 16.4742207,16.1702069 C16.573531,16.4234483 16.5449793,16.7412414 16.5573931,17.0081379 C16.5847034,17.5717241 16.5424966,18.1464828 16.5338069,18.710069 C16.517669,19.6473103 16.5002897,20.5857931 16.4829103,21.5230345 C16.4791862,21.7191724 16.6877379,21.8284138 16.8540828,21.8284138 L19.7241517,21.8284138 C19.9190483,21.8284138 20.0369793,21.6347586 20.0369793,21.4634483 L20.0369793,18.0744828 C20.0369793,17.3582069 20.2852552,16.0671724 20.1127034,15.2404138 L20.1139448,15.2416552 L20.1114621,15.2391724 C20.0878759,15.1274483 20.0580828,15.0231724 20.0171172,14.930069 C20.0009793,14.8928276 19.9711862,14.8555862 19.9500828,14.8195862 C20.3212552,14.8332414 21.361531,14.868 21.4881517,14.8133793 C21.7947724,14.6805517 21.9822207,14.2423448 21.6507724,13.9506207"/>
  </g>
</svg>
