<?xml version="1.0" encoding="utf-8"?>
<!-- Generator: Adobe Illustrator 19.1.0, SVG Export Plug-In . SVG Version: 6.00 Build 0)  -->
<svg version="1.1" id="Layer_1" xmlns="http://www.w3.org/2000/svg" xmlns:xlink="http://www.w3.org/1999/xlink" x="0px" y="0px"
	 width="24px" height="14px" viewBox="0 0 24 14" style="enable-background:new 0 0 24 14;" xml:space="preserve">
<style type="text/css">
	.st0{fill:#333333;}
	.st1{fill:#BBBBBB;}
	.st2{fill:#FFFFFF;}
	.st3{opacity:0.35;}
	.st4{fill:#666666;}
	.st5{fill:#3278EB;}
</style>
<g>
	<path class="st4" d="M19.5,13.4c0-1.5-0.3-1.9-1.6-2.5c-1.4-0.6-4.4-1.1-3.5-3.2c0.3-0.7,0.8-0.9,0.9-1.6c0.1-0.4-0.1-0.9-0.1-1.2
		c-0.1-0.8-0.1-1.3-0.6-1.9c-0.6-0.7-1.8-1.1-2.8-1.1c-0.9,0-2,0.4-2.7,1.1c-0.4,0.5-0.6,1-0.6,1.5c0,0.4,0.1,0.7,0.1,1
		c0,0.2-0.3,0.4-0.2,0.6C8.7,6.8,9.2,7,9.4,7.6c0.9,2.1-2.1,2.8-3.5,3.4c-1.3,0.6-1.4,1.1-1.4,2.5c0,0.4,0.4,0.5,0.7,0.5
		c4.6,0,9.2,0,13.8,0C19.4,14,19.5,13.7,19.5,13.4C19.5,13.4,19.5,13.4,19.5,13.4z M6.3,12.1c0.8-0.6,2-0.8,2.9-1.2
		c1.1-0.5,2-1.1,2-2.3c-0.1-1.1-1-1.9-1.2-2.8c-0.2-1.4,0.3-2.8,2-2.8c1.7,0,2.2,1.3,2,2.8c-0.2,0.9-0.9,1.6-1.1,2.6
		c-0.2,1.2,0.4,1.8,1.5,2.3c1,0.6,2.4,0.7,3.3,1.3c0.4,0.3,0.6,0.4,0.6,0.8c-4.2,0-8.4,0-12.5,0C5.7,12.4,5.8,12.4,6.3,12.1z"/>
	<path class="st4" d="M21.4,8.6c-1.1-0.5-2.9-0.9-2.7-2.3c0.1-0.5,0.5-0.7,0.8-1.1c0.6-0.8,0.3-1.2,0.3-2c-0.1-1.5-0.4-2.8-2.5-3.2
		c-1.6-0.3-3.1,0.3-3.9,1.6c-0.4,0.6,0.8,1.1,1.1,0.5c1.2-1.9,3.9-0.9,4,0.9c0.1,1.2-0.7,1.9-1.1,3c-0.6,1.7,0.6,2.4,2.1,3
		c0.8,0.4,2.2,0.6,2.8,1.2c0.3,0.2,0.3,0.4,0.4,0.6c-1.1,0-2.1,0-3.1,0c-0.8,0-0.7,1.2,0.1,1.2c1.3,0,2.5,0,3.7,0
		c0.4,0,0.6-0.4,0.6-0.6C24,9.4,23.2,9.3,21.4,8.6z"/>
	<path class="st4" d="M10.6,1.6C9.8,0.4,8.2-0.2,6.7,0.1C6,0.2,5.2,0.6,4.8,1.1C4,1.9,4.5,2.6,4.4,3.4C4.4,4.1,3.9,4.3,4.4,5
		c0.2,0.4,0.8,0.6,0.9,1.1c0.2,1.3-1.7,2.1-2.8,2.6C0.6,9.4,0,9.7,0,11.6c0,0.4,0.4,0.5,0.7,0.5c1.3,0,2.5,0,3.7,0
		c0.8,0,0.7-1.2-0.1-1.2c-1,0-2,0-3,0c0-0.3,0.1-0.4,0.4-0.7c0.9-0.7,2.5-0.9,3.5-1.4c1.3-0.7,1.9-1.7,1.3-3
		C5.9,4.6,5.4,4.1,5.5,2.7c0.2-2,3.2-1.9,4.1-0.5C10,2.9,11.1,2.2,10.6,1.6z"/>
</g>
</svg>
