<?xml version="1.0" encoding="utf-8"?>
<!-- Generator: Adobe Illustrator 19.1.0, SVG Export Plug-In . SVG Version: 6.00 Build 0)  -->
<svg version="1.1" id="Layer_1" xmlns="http://www.w3.org/2000/svg" xmlns:xlink="http://www.w3.org/1999/xlink" x="0px" y="0px"
	 width="24px" height="14px" viewBox="0 0 24 14" style="enable-background:new 0 0 24 14;" xml:space="preserve">
<style type="text/css">
	.st0{fill:#333333;}
	.st1{fill:#BBBBBB;}
	.st2{fill:#FFFFFF;}
	.st3{opacity:0.35;}
	.st4{fill:#666666;}
	.st5{fill:#3278EB;}
</style>
<path class="st4" d="M22.1,3.4c-3.1-0.3-6.4,0-9.5,0c-1.8,0-3.6,0-5.5,0c0-0.2,0-0.4,0-0.6c0.1,0,0.2,0,0.3,0C7.5,2.9,7.6,3,7.8,3.2
	c0.6,0.5,1.4-0.4,0.8-1c-0.3-0.3-0.5-0.6-1-0.6c-0.3,0-0.7,0-1,0C6.9,1.4,7.2,1.2,7.5,1c0.6-0.4-0.1-1.3-0.8-0.9
	c-0.8,0.5-1.6,1-2.3,1.5C4,2,4,2.7,4.1,3.4c-0.5,0-1,0-1.4,0c-2,0-3.1,0.8-2.5,3c0.1,0.2,0.4,0.4,0.6,0.4c0.2,0,0.3,0,0.5,0
	c0.3,1.6,0.5,3.6,1.5,4.9c-0.3,0.5-0.7,1-1,1.5c-0.2,0.3,0,0.7,0.3,0.8c0.3,0.1,0.6,0,0.8-0.3c0.2-0.4,0.5-0.8,0.8-1.2
	C5.1,13.2,6.8,13,8.4,13c2.7,0,5.5,0,8.3,0c1.6,0,2.7-0.2,3.7-1c0.4,0.6,0.7,1.1,1.1,1.7c0.4,0.7,1.5-0.1,1-0.7
	c-0.4-0.6-0.8-1.3-1.2-1.9c0,0,0,0-0.1-0.1c0,0,0,0,0,0c0.1-0.1,0.2-0.1,0.2-0.2c0.5-1.3,0.8-2.8,1.1-4.1c0.2,0,0.4,0,0.5,0
	c0.2,0.1,0.4,0.1,0.6,0c0.1,0,0.2-0.1,0.3-0.2C24,6.4,24,6.3,24,6.2C24,4.5,23.8,3.6,22.1,3.4z M5.4,2.6h0.5c0,0.3,0,0.5,0,0.8
	c-0.2,0-0.3,0-0.5,0C5.4,3.1,5.4,2.9,5.4,2.6z M20.4,10.4c-1.3,1.9-3.8,1.4-5.7,1.4c-2.1,0-4.2,0-6.3,0c-2.5,0-4.3-0.2-5.3-2.8
	C2.9,8.4,3,7.5,2.8,6.9c1.1,0.3,3.1-0.1,4.1-0.1c2.1,0,4.3,0,6.4,0c2.7,0,5.3,0,8,0C21,8,20.8,9.3,20.4,10.4z M21.9,5.6
	c-3.3,0-6.7,0-10,0c-2.6,0-5.2,0-7.8,0c-0.8,0-1.6,0-2.4,0c0,0,0,0,0,0c-1-0.1-1.7-0.3-0.4-1c0.7-0.4,3.2,0,3.9,0c0.3,0,0.6,0,1,0
	c0.1,0.1,0.3,0.1,0.5,0c2.3,0,4.6,0,6.9,0c2.4,0,4.7,0,7.1,0c1.9,0,2-0.3,2,1C22.5,5.6,22.2,5.6,21.9,5.6z"/>
</svg>
