<?xml version="1.0" encoding="UTF-8" standalone="no"?>
<svg width="820px" height="600px" viewBox="0 0 820 600" version="1.1" xmlns="http://www.w3.org/2000/svg" xmlns:xlink="http://www.w3.org/1999/xlink">
    <!-- Generator: Sketch 42 (36781) - http://www.bohemiancoding.com/sketch -->
    <title>Artboard 3</title>
    <desc>Created with Sketch.</desc>
    <defs></defs>
    <g id="Page-1" stroke="none" stroke-width="1" fill="none" fill-rule="evenodd">
        <g id="Artboard-3">
            <g id="Group">
                <rect id="Rectangle" fill="#E6E6E6" x="0" y="0" width="820" height="600"></rect>
                <g id="lhs--home" transform="translate(298.000000, 188.000000)" fill-rule="nonzero" fill="#C8C8C8">
                    <path d="M8.43528059,104.275255 C25.5559897,89.3992238 42.6766987,73.9510379 59.7974078,59.0750071 C72.3525945,48.2040615 84.9077811,37.3331159 96.8922775,26.4621702 C100.316419,23.6013951 118.007819,9.86967431 111.730225,10.4418293 C105.452632,10.4418293 121.431961,21.88493 124.856102,24.7457051 C136.840599,35.6166508 149.395785,46.4875964 161.380282,57.358542 C179.071681,72.8067279 197.333771,88.8270688 215.02517,104.275255 C220.732073,108.852495 228.151047,100.270169 222.444144,95.6929292 C186.490655,64.2244024 151.107856,32.7558756 115.154367,1.28734882 C113.442296,-0.429116274 110.018154,-0.429116274 108.306084,1.28734882 C73.4939751,32.1837206 37.540486,63.6522473 2.15768726,95.1207741 C-3.54921577,100.270169 3.29906787,109.42465 8.43528059,104.275255 L8.43528059,104.275255 Z" id="Shape"></path>
                    <path d="M26.5086898,129.318466 C47.0792492,111.095449 67.0784042,92.3029624 87.6489636,74.0799454 C96.22003,66.6768448 106.50531,59.2737441 113.933567,50.7317049 C116.790589,47.3148892 108.219523,46.7454199 111.64795,50.7317049 C115.647781,54.7179898 120.79042,58.1348055 124.790251,62.1210905 C138.503958,73.5104761 152.217664,84.8998618 165.359966,96.8587167 C170.502606,101.414471 175.073841,105.970225 180.787885,109.95651 C184.787716,112.803857 188.787547,119.637488 187.073334,113.373326 C189.358952,121.345896 187.073334,134.443689 187.073334,142.416259 L187.073334,197.65478 C187.073334,202.210534 185.359121,210.183104 187.073334,214.169389 L187.073334,218.725143 C187.644739,216.447266 194.501592,215.308327 189.358952,213.599919 C176.21665,209.613635 158.503113,218.155674 145.360811,213.599919 C153.931877,216.447266 150.503451,217.586204 151.074855,206.196819 C151.074855,197.65478 151.64626,189.68221 151.64626,181.14017 C151.64626,165.7645 154.503282,148.110952 151.64626,133.304751 C146.50362,105.970225 106.50531,90.5945546 87.0775592,113.942795 C72.221044,132.165812 80.220706,172.598131 80.220706,193.668495 C80.220706,200.502126 79.0778972,208.474696 80.220706,215.308327 C80.7921105,219.864082 77.9350883,219.294612 82.5063238,216.447266 C89.3631769,211.891512 76.7922795,214.169389 75.0780662,213.599919 C67.6498086,212.460981 56.7931245,212.460981 49.3648669,213.599919 C47.0792492,214.169389 43.0794182,213.599919 40.7938005,213.599919 C38.5081828,213.599919 43.6508226,221.00302 44.7936315,215.877797 C48.7934625,203.349472 43.0794182,180.570701 42.5080138,167.472908 C41.9366093,153.805645 41.3652049,140.707851 40.7938005,127.040589 C40.222396,119.637488 29.3657119,120.776427 29.3657119,128.179527 C29.9371163,157.79193 31.6513296,188.543271 32.7941385,218.725143 C32.7941385,222.141959 36.222565,223.850367 39.0795872,223.850367 L85.9347503,223.850367 C89.3631769,223.850367 91.0773902,220.433551 91.0773902,217.586204 L91.0773902,174.306539 C91.0773902,161.778215 86.5061548,137.860505 92.7916035,125.90165 C100.791265,109.95651 132.218509,110.525979 139.075362,129.887935 C140.789575,133.87422 140.218171,139.568913 140.218171,143.555198 C140.789575,152.666706 140.218171,162.347684 139.646767,172.028662 C139.646767,187.404333 139.075362,203.349472 139.075362,218.725143 C139.075362,222.141959 142.503789,223.850367 145.360811,223.850367 L193.358783,223.850367 C196.787209,223.850367 198.501423,220.433551 198.501423,217.586204 L198.501423,161.208746 C198.501423,147.541483 203.644063,121.915365 197.930018,109.387041 C192.215974,96.8587167 170.502606,84.8998618 160.78873,76.9272918 C145.932215,64.3989676 131.0757,51.8706434 116.219185,39.3423192 C114.504972,37.6339114 111.076545,37.6339114 109.362332,39.3423192 C79.6493016,66.1073755 49.9362713,92.8724317 20.223241,120.206957 C14.5091968,124.762712 21.3660499,133.87422 26.5086898,129.318466 L26.5086898,129.318466 Z" id="Shape"></path>
                </g>
            </g>
        </g>
    </g>
</svg>