<?xml version="1.0" encoding="utf-8"?>
<!-- Generator: Adobe Illustrator 19.1.0, SVG Export Plug-In . SVG Version: 6.00 Build 0)  -->
<svg version="1.1" id="Layer_1" xmlns="http://www.w3.org/2000/svg" xmlns:xlink="http://www.w3.org/1999/xlink" x="0px" y="0px"
	 width="24px" height="14px" viewBox="0 0 24 14" style="enable-background:new 0 0 24 14;" xml:space="preserve">
<style type="text/css">
	.st0{fill:#333333;}
	.st1{fill:#BBBBBB;}
	.st2{fill:#FFFFFF;}
	.st3{opacity:0.35;}
	.st4{fill:#666666;}
	.st5{fill:#3278EB;}
</style>
<path class="st4" d="M23.9,9.1c0-1.6,0.4-3.4-1.4-4.1c-0.1-0.1-0.1-0.1-0.2-0.2c0-0.2-0.1-0.6-0.1-0.7c0-0.7,0.1-1.5,0-2.1
	C22,1.2,21.9,0.5,21,0.2c-1.2-0.4-2,0.4-2.8,0.4C16.2,0.6,14.1,0,12,0c-2,0-4.3,0.8-6.3,0.6C5.2,0.5,4.5-0.2,3.5,0.1
	C1.5,0.6,1.9,3.2,2,4.9C0.6,5,0.3,6.3,0.2,7.6c-0.1,1.5-0.7,4.2,0.3,5.5c1.2,1.6,2.7,0.3,3.8,0.1c2.1-0.5,5,0,7.2,0
	c2.6,0,5.2,0,7.8,0c0.3,0,0.8-0.1,1.1,0c0.4,0.1-0.1,0.3,0.2,0.4c0.9,0.3,1.4,0.6,2.3,0.1C24.5,12.9,23.9,10.4,23.9,9.1z M4.5,1.7
	C4.7,1.9,5,2,5.3,1.9C9.4,0.7,14.5,0.9,18.5,2c0.2,0.1,0.5-0.1,0.6-0.2c0.5-0.5,1.3,0.5,1.4,0.7c0.1,0.3,0,1,0,1.2
	c0,0.6,0,1.2,0,1.8c-1.1-1.1-2.8-1.9-4.5-1.9c-1.1,0-2.2,0.3-3.1,0.8c-0.3,0.2-0.6,0.5-0.9,0.8c0.1-0.1-0.8-0.3-0.2,0.1c0,0,0,0,0,0
	C10,4,8.8,3.1,6.1,3.8C5,4.1,4,4.6,3.3,5.4c0-0.2-0.1-0.3-0.2-0.3c0-0.5,0-1,0-1.5C3.1,3.4,3.1,0,4.5,1.7z M19.7,6.5
	c-1.9-0.6-3.7-0.9-5.7-1.1C16,4.5,18.4,5,19.7,6.5z M10.3,5.4C8.2,5.5,6.2,5.9,4.1,6.6C5.3,4.9,8.7,4,10.3,5.4z M21.8,12.3
	c-0.7,0.2-0.7-0.2-1.3-0.2c-2.7-0.2-5.5,0-8.3,0c-3,0-5.9-0.1-8.8,0c-1.7,0.1-2,0.4-2-1.4c0-0.7-0.5-4.3,0.7-4.6c0,0.5,0,1,0,1.5
	C2,8,2.4,8.1,2.7,8.1c0.9,0,1.1-0.2,1.9-0.5c2.4-0.8,4.9-1.2,7.5-1.2c2.6,0,5,0.4,7.5,1.2c0.8,0.2,1,0.4,1.9,0.4
	c0.4,0,0.6-0.4,0.6-0.6c0-0.4,0-0.8,0-1.2c0.8,0.9,0.3,3.5,0.3,4.3C22.5,11.5,22.8,12,21.8,12.3z"/>
</svg>
